<svg xmlns="http://www.w3.org/2000/svg" viewBox="0 0 600 750" role="img" aria-label="Resting on The Cloud Pillow">
  <defs>
    <linearGradient id="bg" x1="0" y1="0" x2="0" y2="1"><stop offset="0" stop-color="#e9d9c4"/><stop offset="1" stop-color="#cdb293"/></linearGradient>
    <radialGradient id="glow" cx="70%" cy="22%" r="60%"><stop offset="0" stop-color="#fff3df" stop-opacity="0.9"/><stop offset="1" stop-color="#fff3df" stop-opacity="0"/></radialGradient>
  </defs>
  <rect width="600" height="750" fill="url(#bg)"/>
  <rect width="600" height="750" fill="url(#glow)"/>
  <rect x="0" y="470" width="600" height="280" fill="#f2e7d6"/>
  <path d="M40 500c0-46 50-78 130-78 34 0 50 14 104 14s70-14 104-14c80 0 130 32 130 78 0 34-50 56-130 56-52 0-82-12-114-12s-62 12-114 12c-80 0-110-22-110-56Z" fill="#fffdf9" stroke="#e0d2bd" stroke-width="2"/>
  <circle cx="300" cy="430" r="58" fill="#e7cdb0"/>
  <path d="M250 470c10 30 90 30 100 0 0 0 14 28 14 60H236c0-32 14-60 14-60Z" fill="#d9b893"/>
</svg>
