<svg viewBox="0 0 800 1000" xmlns="http://www.w3.org/2000/svg" role="img" aria-label="CREO morning ritual on the counter">
  <defs>
    <clipPath id="jarL"><rect x="250" y="470" width="150" height="184" rx="26"/></clipPath>
    <linearGradient id="wall" x1="0" y1="0" x2="0" y2="1"><stop offset="0" stop-color="#ffffff"/><stop offset="1" stop-color="#f4f7fb"/></linearGradient>
  </defs>
  <rect width="800" height="1000" fill="url(#wall)"/>
  <!-- morning sun -->
  <circle cx="600" cy="240" r="120" fill="#ff6a3d" opacity="0.16"/>
  <circle cx="600" cy="240" r="78" fill="#ff6a3d" opacity="0.14"/>
  <!-- plant -->
  <g>
    <rect x="120" y="560" width="78" height="96" rx="10" fill="#14233f"/>
    <path d="M159 560c-6-70 18-120 8-168-30 36-44 96-8 168Z" fill="#6aa67d"/>
    <path d="M159 560c30-58 78-78 96-128-46 8-92 52-96 128Z" fill="#7fb892"/>
    <path d="M159 560c-30-50-86-58-104-104 44 2 96 40 104 104Z" fill="#6aa67d"/>
  </g>
  <!-- counter -->
  <rect x="0" y="656" width="800" height="344" fill="#e3e9f2"/>
  <rect x="0" y="656" width="800" height="14" fill="#eef2f8"/>
  <ellipse cx="325" cy="660" rx="110" ry="16" fill="#14233f" opacity="0.07"/>
  <ellipse cx="600" cy="662" rx="86" ry="12" fill="#14233f" opacity="0.07"/>
  <!-- jar -->
  <rect x="250" y="470" width="150" height="184" rx="26" fill="#ffffff" stroke="#dbe2ee" stroke-width="2"/>
  <g clip-path="url(#jarL)">
    <g fill="#9d3b6b">
      <rect x="262" y="560" width="28" height="24" rx="8"/><rect x="296" y="572" width="28" height="24" rx="8"/>
      <rect x="330" y="562" width="28" height="24" rx="8"/><rect x="362" y="574" width="26" height="22" rx="8"/>
      <rect x="268" y="592" width="28" height="24" rx="8"/><rect x="306" y="600" width="28" height="24" rx="8"/>
      <rect x="344" y="594" width="28" height="24" rx="8"/><rect x="258" y="620" width="28" height="22" rx="8"/>
      <rect x="298" y="626" width="28" height="20" rx="8"/><rect x="338" y="622" width="28" height="22" rx="8"/>
    </g>
  </g>
  <rect x="260" y="480" width="18" height="130" rx="9" fill="#ffffff" opacity="0.5"/>
  <rect x="242" y="446" width="166" height="38" rx="13" fill="#14233f"/>
  <rect x="266" y="506" width="118" height="84" rx="12" fill="#ffffff" stroke="#e6eaf2" stroke-width="1.5"/>
  <text x="325" y="544" text-anchor="middle" font-family="'Helvetica Neue', Arial, sans-serif" font-size="26" font-weight="700" fill="#14233f" letter-spacing="2">CREO</text>
  <text x="325" y="562" text-anchor="middle" font-family="'Helvetica Neue', Arial, sans-serif" font-size="8.5" font-weight="700" fill="#9d3b6b" letter-spacing="2">WILD BERRY</text>
  <text x="325" y="578" text-anchor="middle" font-family="'Helvetica Neue', Arial, sans-serif" font-size="7.5" fill="#7e8aa3" letter-spacing="1">5g CREATINE</text>
  <!-- coffee mug -->
  <path d="M540 580h120v44a36 36 0 0 1-36 36h-48a36 36 0 0 1-36-36Z" fill="#14233f"/>
  <path d="M660 592h14a22 22 0 0 1 0 44h-14" fill="none" stroke="#14233f" stroke-width="12"/>
  <ellipse cx="600" cy="580" rx="60" ry="12" fill="#1e3252"/>
  <ellipse cx="600" cy="580" rx="46" ry="8" fill="#0e1a30"/>
  <path d="M584 560c-6-12 6-20 0-32M608 560c-6-12 6-20 0-32" fill="none" stroke="#ff6a3d" stroke-width="3" opacity="0.5" stroke-linecap="round"/>
</svg>
